<?xml version="1.0" encoding="UTF-8"?>
<svg id="_레이어_1" data-name="레이어 1" xmlns="http://www.w3.org/2000/svg" viewBox="0 0 316 100">
  <defs>
    <style>
      .cls-1 {
        fill: #231917;
        stroke-width: 0px;
      }
    </style>
  </defs>
  <polygon class="cls-1" points="56.96 27.77 56.29 27.77 54.25 27.77 56.29 31.16 56.29 46.28 37.55 46.28 37.55 27.77 29.88 27.77 29.2 27.77 27.17 27.77 29.2 31.16 29.2 72.46 37.55 72.46 37.55 52.37 56.29 52.37 56.29 72.46 64.64 72.46 64.64 27.77 56.96 27.77"/>
  <path class="cls-1" d="M233.16,27.24h-2.48l2.03,3.59v33.55c-3.13,2.53-7.3,2.36-7.3,2.36-9.78,0-10.53-10.61-10.53-10.61h0v-28.89h-10.16l2.03,3.59v28.91c0,3.8,2.56,7.18,3.91,8.69s5.3,4.55,11.06,4.55,8.8-1.73,11.02-2.9,8.09-4.93,8.09-4.93V27.24h-7.67Z"/>
  <path class="cls-1" d="M155.61,69.81c-3.15,1.6-7.25,2.39-12.29,2.39-6.44,0-11.57-1.96-15.4-5.89-3.83-3.93-5.74-9.16-5.74-15.7s2.14-12.46,6.41-16.82c4.27-4.36,9.76-6.54,16.45-6.54,4.21,0,7.74.56,10.57,1.68v8.66c-3.07-2.44-6.98-3.92-10.72-3.92-4.39,0-8.85,2.33-11.5,5.19-2.65,2.86-3.97,6.58-3.97,11.17s1.26,8.11,3.78,10.81c2.52,2.7,6.82,4.95,11.02,4.95,3.96,0,8.33-1.65,11.4-4.19v8.22Z"/>
  <path class="cls-1" d="M194.7,71.44h-24.87V27.96h8.42v36.51h16.45v6.97Z"/>
  <path class="cls-1" d="M257.13,71.44V27.96h14.8c4.47,0,7.96.89,10.49,2.67,2.52,1.78,3.78,4.27,3.78,7.46,0,2.32-.74,4.38-2.22,6.16-1.48,1.78-3.47,3.06-5.97,3.83v.09c3.07.39,5.51,1.54,7.33,3.43,1.81,1.89,2.72,4.23,2.72,7.03,0,3.9-1.4,7.01-4.19,9.33-2.8,2.32-6.54,3.49-11.22,3.49h-15.51ZM265.55,32.85v13.43h4.58c2.26,0,4.04-.99,5.32-2.06,1.28-1.07,1.92-2.58,1.92-4.53,0-3.5-2.5-6.84-7.5-6.84h-4.31ZM265.55,51.65v14.22h5.79c2.48,0,4.41-1.47,5.79-2.62,1.38-1.14,2.07-2.73,2.07-4.76,0-4.12-2.72-6.85-8.15-6.85h-5.49Z"/>
  <rect class="cls-1" x="75.62" y="47.18" width="34.91" height="5.05"/>
  <polygon class="cls-1" points="169.83 27.96 167.23 27.96 169.83 31.63 169.83 27.96"/>
  <polygon class="cls-1" points="257.14 27.96 254.77 27.96 257.14 31.63 257.14 27.96"/>
</svg>